<?xml version="1.0" encoding="utf-8"?>
<!-- Generator: Adobe Illustrator 21.1.0, SVG Export Plug-In . SVG Version: 6.00 Build 0)  -->
<svg version="1.1" id="Layer_1" xmlns="http://www.w3.org/2000/svg" xmlns:xlink="http://www.w3.org/1999/xlink" x="0px" y="0px"
	 viewBox="0 0 110 166" style="enable-background:new 0 0 110 166;" xml:space="preserve">
<style type="text/css">
	.st0{fill:#FFFFFF;}
	.st1{fill:none;stroke:#FFFFFF;stroke-width:5;stroke-miterlimit:1;}
</style>
  <path class="st0" d="M3,5c0,30.2,0,60.4,0,90.6c0,4.3,0,8.6,0,12.9c0,1.9,3,1.9,3,0c0-30.2,0-60.4,0-90.6C6,13.6,6,9.3,6,5C6,3.1,3,3.1,3,5L3,5z"/>
  <path class="st0" d="M105,4.5c0,30.3,0,60.7,0,91c0,4.3,0,8.7,0,13c0,1.9,3,1.9,3,0c0-30.3,0-60.7,0-91c0-4.3,0-8.7,0-13C108,2.6,105,2.6,105,4.5L105,4.5z"/>
  <path class="st0" d="M3.4,109.6c17.3,18,34.7,36,52,54c1.3,1.4,3.5-0.7,2.1-2.1c-17.3-18-34.7-36-52-54C4.2,106,2.1,108.2,3.4,109.6L3.4,109.6z"/>
  <path class="st0" d="M105.4,107.4c-16.7,18-33.3,36-50,54c-1.3,1.4,0.8,3.5,2.1,2.1c16.7-18,33.3-36,50-54C108.9,108.1,106.8,106,105.4,107.4L105.4,107.4z"/>
  <path class="st0" d="M104.4,4.4c-11,12.3-22,24.7-33,37c-1.3,1.4,0.8,3.6,2.1,2.1c11-12.3,22-24.7,33-37C107.8,5.1,105.7,3,104.4,4.4L104.4,4.4z"/>
  <path class="st0" d="M39,44c11.2,0,22.3,0,33.5,0c1.9,0,1.9-3,0-3c-11.2,0-22.3,0-33.5,0C37.1,41,37.1,44,39,44L39,44z"/>
  <path class="st0" d="M3.4,5.6c11.3,12.7,22.7,25.3,34,38c1.3,1.4,3.4-0.7,2.1-2.1c-11.3-12.7-22.7-25.3-34-38C4.3,2,2.2,4.1,3.4,5.6L3.4,5.6z"/>
  <path class="st0" d="M12,69c7.5,0,15,0,22.5,0c1.9,0,1.9-3,0-3c-7.5,0-15,0-22.5,0C10.1,66,10.1,69,12,69L12,69z"/>
  <path class="st0" d="M77,69c7.5,0,15,0,22.5,0c1.9,0,1.9-3,0-3c-7.5,0-15,0-22.5,0C75.1,66,75.1,69,77,69L77,69z"/>
</svg>
